<svg xmlns="http://www.w3.org/2000/svg" viewBox="0 0 45 40">
  <defs>
    <style>
      .cls-1 {
        fill: rgba(5,20,32,0.5);
      }

      .cls-2 {
        fill: none;
      }

      .cls-3, .cls-5 {
        fill: #fff;
      }

      .cls-4, .cls-5 {
        stroke: none;
      }
    </style>
  </defs>
  <g id="组_90" data-name="组 90" transform="translate(-0.5)">
    <rect id="矩形_56" data-name="矩形 56" class="cls-1" width="45" height="40" transform="translate(0.5)"/>
    <g id="路径_75" data-name="路径 75" class="cls-2" transform="translate(10.933 22.505) rotate(-56)">
      <path class="cls-4" d="M7.635-.039a7.2,7.2,0,0,1,7.42,7.318,7.809,7.809,0,0,1-7.673,7.571A7.2,7.2,0,0,1-.038,7.532,7.809,7.809,0,0,1,7.635-.039Z"/>
      <path class="cls-5" d="M 7.765556812286377 0.9604129791259766 C 7.72780704498291 0.9604129791259766 7.689626693725586 0.9607229232788086 7.651676654815674 0.9613628387451172 C 4.023447036743164 1.022103309631348 1.022346496582031 3.977493286132813 0.9617166519165039 7.549403190612793 C 0.9332571029663086 9.225942611694336 1.556926727294922 10.79953289031982 2.717846870422363 11.98031330108643 C 3.904336929321289 13.18711280822754 5.514456748962402 13.85173320770264 7.251596927642822 13.85173320770264 C 7.289346694946289 13.85173320770264 7.327527046203613 13.8514232635498 7.365477085113525 13.8507833480835 C 10.99370670318604 13.79004287719727 13.99480724334717 10.8346529006958 14.05542659759521 7.26274299621582 C 14.08388710021973 5.586202621459961 13.4602165222168 4.012613296508789 12.29931640625 2.831832885742188 C 11.11282730102539 1.625033378601074 9.502706527709961 0.9604129791259766 7.765556812286377 0.9604129791259766 M 7.765560626983643 -0.03959178924560547 C 11.87225532531738 -0.03959178924560547 15.12434864044189 3.211094856262207 15.0552864074707 7.279713153839111 C 14.98550701141357 11.39123344421387 11.55014705657959 14.78086280822754 7.382216930389404 14.85064315795898 C 7.33871603012085 14.85137176513672 7.294907093048096 14.85173797607422 7.251593589782715 14.85173797607422 C 3.144898414611816 14.85173797607422 -0.1071949005126953 11.60104084014893 -0.03814315795898438 7.532433032989502 C 0.031646728515625 3.420912742614746 3.466997146606445 0.03128337860107422 7.634936809539795 -0.03849697113037109 C 7.67843770980835 -0.03922557830810547 7.722247123718262 -0.03959178924560547 7.765560626983643 -0.03959178924560547 Z"/>
    </g>
    <path id="路径_76" data-name="路径 76" class="cls-3" d="M.112.015,1.484-.008,1.323,9.467-.049,9.49Z" transform="translate(26.923 25.349) rotate(-56)"/>
  </g>
</svg>
