<svg xmlns="http://www.w3.org/2000/svg" viewBox="0 0 16.715 18.236">
  <defs>
    <style>
      .cls-1 {
        fill: #fff;
      }
    </style>
  </defs>
  <path id="垃圾桶" class="cls-1" d="M162.115,115.517v.759a.357.357,0,0,1-.107.271.364.364,0,0,1-.271.107H160.6v11.257a2.708,2.708,0,0,1-.556,1.7,1.656,1.656,0,0,1-1.34.72h-9.885a1.671,1.671,0,0,1-1.341-.7,2.6,2.6,0,0,1-.556-1.68v-11.3h-1.14a.357.357,0,0,1-.271-.107.364.364,0,0,1-.107-.271v-.759a.357.357,0,0,1,.107-.271.364.364,0,0,1,.271-.107h3.67l.832-1.983a1.672,1.672,0,0,1,.643-.75,1.689,1.689,0,0,1,.939-.31h3.8a1.672,1.672,0,0,1,.939.31,1.638,1.638,0,0,1,.643.75l.832,1.983h3.668a.357.357,0,0,1,.271.107A.369.369,0,0,1,162.115,115.517Zm-10.64,11.4v-8.362a.357.357,0,0,0-.107-.271.364.364,0,0,0-.271-.107h-.759a.357.357,0,0,0-.271.107.364.364,0,0,0-.107.271v8.362a.357.357,0,0,0,.107.271.364.364,0,0,0,.271.107h.759a.367.367,0,0,0,.378-.378Zm-.378-11.782h5.321l-.57-1.388a.326.326,0,0,0-.2-.13h-3.764a.336.336,0,0,0-.2.13Zm3.42,11.782v-8.362a.357.357,0,0,0-.107-.271.364.364,0,0,0-.271-.107h-.759a.357.357,0,0,0-.271.107.364.364,0,0,0-.107.271v8.362a.357.357,0,0,0,.107.271.364.364,0,0,0,.271.107h.759a.357.357,0,0,0,.271-.107A.369.369,0,0,0,154.517,126.919Zm3.039,0v-8.362a.357.357,0,0,0-.107-.271.364.364,0,0,0-.271-.107h-.759a.357.357,0,0,0-.271.107.364.364,0,0,0-.107.271v8.362a.357.357,0,0,0,.107.271.364.364,0,0,0,.271.107h.759a.367.367,0,0,0,.378-.378Z" transform="translate(-145.4 -112.1)"/>
</svg>
