<?xml version="1.0" standalone="no"?><!DOCTYPE svg PUBLIC "-//W3C//DTD SVG 1.1//EN" "http://www.w3.org/Graphics/SVG/1.1/DTD/svg11.dtd"><svg t="1535617875156" class="icon" style="" viewBox="0 0 1024 1024" version="1.1" xmlns="http://www.w3.org/2000/svg" p-id="1921" xmlns:xlink="http://www.w3.org/1999/xlink" width="19" height="19"><defs><style type="text/css"></style></defs><path d="M514.512 582.128c-142.848 0-259.064-116.216-259.064-259.064S371.664 64 514.512 64s259.064 116.216 259.064 259.064c0 142.84-116.216 259.064-259.064 259.064z m0-466.928c-114.616 0-207.864 93.248-207.864 207.856 0 114.616 93.248 207.848 207.864 207.848s207.864-93.224 207.864-207.84S629.144 115.2 514.512 115.2zM316.088 552.44a11.704 11.704 0 0 0-0.592 0.36 305.192 305.192 0 0 0 46.456 33.232l0.72-0.368a304.92 304.92 0 0 1-46.584-33.224zM666.36 585.664c0.232 0.12 0.488 0.24 0.72 0.368a307.264 307.264 0 0 0 46.456-33.232 11.52 11.52 0 0 0-0.584-0.36 305.784 305.784 0 0 1-46.592 33.224z" fill="#ffffff" p-id="1922"></path><path d="M754.984 580a403.256 403.256 0 0 0-41.456-27.2 304.864 304.864 0 0 1-46.464 33.232 350.304 350.304 0 0 1 46.64 27.232c91.824 63.44 152.12 170.16 152.12 289.952 0 2.672-0.152 0.784-0.2 8.784H163.408c-0.056-8-0.2-6.112-0.2-8.784 0-119.8 60.304-226.128 152.112-289.56 14.776-10.2 30.344-19.544 46.64-27.44a305.616 305.616 0 0 1-46.456-33.328 399.832 399.832 0 0 0-41.456 27.16C175.776 653.504 112 770.616 112 902.472c0 2.672 0.152 6.096 0.2 8.768a421.68 421.68 0 0 0 3.776 48.776h797.064c2.192-16 3.464-32.52 3.792-48.792 0.048-2.672 0.192-5.704 0.192-8.392 0.008-131.848-63.776-249.376-162.04-322.832z" fill="#ffffff" p-id="1923"></path><path d="M514.512 582.128c142.848 0 259.064-116.224 259.064-259.064C773.576 180.216 657.36 64 514.512 64S255.448 180.216 255.448 323.064s116.216 259.064 259.064 259.064z m0-466.928c114.632 0 207.864 93.248 207.864 207.864s-93.248 207.84-207.864 207.84-207.864-93.232-207.864-207.848c0-114.608 93.248-207.856 207.864-207.856z" fill="#ffffff" p-id="1924"></path></svg>