<?xml version="1.0" standalone="no"?><!DOCTYPE svg PUBLIC "-//W3C//DTD SVG 1.1//EN" "http://www.w3.org/Graphics/SVG/1.1/DTD/svg11.dtd"><svg t="1535617909013" class="icon" style="" viewBox="0 0 1024 1024" version="1.1" xmlns="http://www.w3.org/2000/svg" p-id="2635" xmlns:xlink="http://www.w3.org/1999/xlink" width="19" height="19"><defs><style type="text/css"></style></defs><path d="M800.896736 407.915433l-2.261507 0c-16.712637 0-30.429033 4.801353-43.639916 12.976546-11.561313-33.718963-40.968064-58.008158-78.842673-58.008158-16.71366 0-32.677237 4.801353-45.886073 12.976546-11.562337-33.716916-40.98239-58.008158-78.859046-58.008158-14.772448 0-28.500101 3.701299-40.651862 10.203386l0-86.7559c0-47.254234-35.742039-85.560678-83.338057-85.560678-47.599088 0-86.182848 38.306444-86.182848 85.560678L341.234755 573.463864l-52.357462-52.142567c-33.657564-33.412994-93.226265-28.655643-121.881908 0-28.656667 28.656667-47.450708 86.335321-6.415107 127.370923l240.682641 239.104703c4.965082 4.928243 10.42442 9.04091 16.165168 12.516058 43.883463 35.798321 94.167706 56.990992 200.49843 56.990992 242.907309 0 265.402649-131.048685 265.402649-292.705482L883.329167 493.475088C883.33019 446.221878 848.495824 407.915433 800.896736 407.915433L800.896736 407.915433zM837.967026 664.594397c0 136.787386-0.652869 247.673869-220.042555 247.673869-92.937692 0-148.734486-20.722974-191.003172-62.685691L199.068871 623.214964c-20.159132-20.159132-15.08865-45.934169 1.414209-62.437028 16.501836-16.502859 46.791699-17.073864 62.733786-1.24741 0 0 39.97648 39.740096 74.417897 73.977875 26.064632 25.910113 48.959062 48.670489 48.959062 48.670489L386.593825 250.305813c0-22.3838 18.278295-40.528042 40.824801-40.528042 22.544459 0 37.977963 18.145266 37.977963 40.528042l0 274.692223 0.457418 0c-0.297782 1.455141-0.457418 2.960425-0.457418 4.503571 0 12.43317 10.154267 22.515806 22.679535 22.515806 12.524245 0 22.678512-10.080589 22.678512-22.515806 0-1.543146-0.158612-3.048429-0.457418-4.503571l0.457418 0L510.754636 412.419004c0-22.3838 16.311501-40.529065 38.858006-40.529065 0 0 39.944757-0.540306 39.944757 40.529065l0 148.60248 0.457418 0c-0.297782 1.457188-0.457418 2.961448-0.457418 4.503571 0 12.435217 10.154267 22.51683 22.678512 22.51683 12.525268 0 22.679535-10.080589 22.679535-22.51683 0-1.542122-0.158612-3.047406-0.457418-4.503571l0.457418 0L634.915447 457.45164c0-22.384823 16.050558-40.531112 38.598086-40.531112 0 0 40.774659 2.538823 40.774659 40.531112l0 130.590244 0.457418 0c-0.297782 1.455141-0.457418 2.961448-0.457418 4.503571 0 12.435217 10.154267 22.515806 22.678512 22.515806 12.526291 0 22.110577-10.079566 22.110577-22.515806 0-1.542122-0.149403-3.048429-0.431835-4.503571l0.431835 0 0-89.161692c0-22.381753 16.819061-40.529065 39.364543-40.529065 0 0 39.525202-1.598404 39.525202 40.529065C837.967026 498.879168 837.967026 628.174929 837.967026 664.594397L837.967026 664.594397zM307.559794 368.868115l0-75.66633c-7.201006-16.141632-11.290137-33.974789-11.290137-52.792367 0-71.704089 58.126862-129.830951 129.830951-129.830951 71.703065 0 129.830951 58.126862 129.830951 129.830951 0 9.794064-1.157359 19.303648-3.235694 28.466332 16.32992 0.636496 31.063483 7.4159 41.788755 18.298761 4.157693-14.904455 6.604418-30.523177 6.604418-46.765093 0-96.642061-78.346369-174.989453-174.989453-174.989453-96.644107 0-174.989453 78.346369-174.989453 174.989453C251.111155 291.257503 272.930089 336.894913 307.559794 368.868115L307.559794 368.868115z" p-id="2636" fill="#ffffff"></path></svg>