<svg xmlns="http://www.w3.org/2000/svg" viewBox="0 0 290.137 12">
  <defs>
    <style>
      .cls-1 {
        fill: #084c89;
      }

      .cls-2 {
        fill: none;
        opacity: 0.8;
      }

      .cls-3, .cls-4 {
        stroke: none;
      }

      .cls-4 {
        fill: #00fcff;
      }
    </style>
  </defs>
  <g id="组_80" data-name="组 80" transform="translate(-797.861 -910.998)">
    <path id="矩形_1638" data-name="矩形 1638" class="cls-1" d="M1005.939,923l-7.745-12h82.15L1088,923Zm-38.1,0-9.974-12h26.887l9.464,12Zm-169.978,0,7.653-12h140.4l10.2,12Z"/>
    <g id="矩形_1638-2" data-name="矩形 1638" class="cls-2">
      <path class="cls-3" d="M1005.939,923l-7.745-12h82.15L1088,923Zm-38.1,0-9.974-12h26.887l9.464,12Zm-169.978,0,7.653-12h140.4l10.2,12Z"/>
      <path class="cls-4" d="M 1086.174438476563 921.9977416992188 L 1079.796508789063 911.998046875 L 1000.030029296875 911.998046875 L 1006.483764648438 921.9977416992188 L 1086.174438476563 921.9977416992188 M 992.1541748046875 921.9977416992188 L 984.2672119140625 911.998046875 L 959.9970703125 911.998046875 L 968.3084716796875 921.9977416992188 L 992.1541748046875 921.9977416992188 M 953.9551391601563 921.9977416992188 L 945.4547119140625 911.998046875 L 806.0618286132813 911.998046875 L 799.6846313476563 921.9977416992188 L 953.9551391601563 921.9977416992188 M 1087.998291015625 922.9977416992188 L 1005.939025878906 922.9977416992188 L 998.1945190429688 910.998046875 L 1080.3447265625 910.998046875 L 1087.998291015625 922.9977416992188 Z M 994.216552734375 922.9977416992188 L 967.8392944335938 922.9977416992188 L 957.8655395507813 910.998046875 L 984.7521362304688 910.998046875 L 994.216552734375 922.9977416992188 Z M 956.1177368164063 922.9977416992188 L 797.8609008789063 922.9977416992188 L 805.5135498046875 910.998046875 L 945.9171142578125 910.998046875 L 956.1177368164063 922.9977416992188 Z"/>
    </g>
  </g>
</svg>
