<svg xmlns="http://www.w3.org/2000/svg" viewBox="0 0 612 344.25">
  <defs>
    <style>
      .cls-1 {
        fill: #111;
      }

      .cls-2, .cls-3 {
        fill: #afafaf;
      }

      .cls-3 {
        font-size: 14px;
        font-family: MicrosoftYaHei, Microsoft YaHei;
      }
    </style>
  </defs>
  <g id="组_126" data-name="组 126" transform="translate(-273 -109)">
    <rect id="矩形_148" data-name="矩形 148" class="cls-1" width="612" height="344.25" transform="translate(273 109)"/>
    <path id="视频" class="cls-2" d="M151.446,303.438v-9.529a4.12,4.12,0,0,1,.757-2.506l10.429-10.736c3.413-3.511,7.34-4.5,7.34-.733v37.485c0,3.759-3.927,2.778-7.34-.733L152.2,305.95A4.113,4.113,0,0,1,151.446,303.438Zm-4.932,10.574a5.775,5.775,0,0,1-5.775,5.775H100.431a5.775,5.775,0,0,1-5.775-5.775V283.329a5.775,5.775,0,0,1,5.775-5.775H140.74a5.775,5.775,0,0,1,5.775,5.775Z" transform="translate(446.241 -52.627)"/>
    <text id="未检测到视频流数据_请选择视频流或检查摄像头状态" data-name="未检测到视频流数据
请选择视频流或检查摄像头状态" class="cls-3" transform="translate(579 315)"><tspan x="-63" y="0">未检测到视频流数据</tspan><tspan x="-98" y="19">请选择视频流或检查摄像头状态</tspan></text>
    <path id="感叹号" class="cls-1" d="M439.956,164.149a1.676,1.676,0,0,0,3.3,0l1.1-15.115a2.754,2.754,0,0,0-2.748-2.748,2.825,2.825,0,0,0-2.748,3.023Zm1.649,4.122a2.748,2.748,0,1,0,2.748,2.748A2.6,2.6,0,0,0,441.605,168.272Z" transform="translate(125.143 85.714)"/>
    <path id="联合_2" data-name="联合 2" class="cls-2" d="M14518,12976v-30h30v6h-24v24Z" transform="translate(-14245 -12837)"/>
    <path id="联合_3" data-name="联合 3" class="cls-2" d="M14518,12976v-30h30v6h-24v24Z" transform="translate(15403 13399) rotate(180)"/>
  </g>
</svg>
